/* XPM */
static char *test_xpm[] = {
"4 4 3 1",
"  c None",
". c #FF0000",
"+ c #00FF00",
"....",
".++.",
".++.",
"...."
};